<svg xmlns="http://www.w3.org/2000/svg" viewBox="-2767.899 -9742.898 154.797 154.797">
  <defs>
    <style>
      .cls-1 {
        fill: #fff;
      }
    </style>
  </defs>
  <g id="group-267" transform="translate(-447.899 1939.102)">
    <path id="path-110" class="cls-1" d="M.526,154.8l-.526,0v-9.879l.528,0c37.461,0,67.938-30.29,67.938-67.522S37.989,9.875.528,9.875L0,9.877V0H.526C43.468,0,78.4,34.721,78.4,77.4S43.468,154.8.526,154.8Z" transform="translate(-2243.606 -11682)"/>
    <path id="path-110-2" data-name="path-110" class="cls-1" d="M.526,154.8l-.526,0v-9.879l.528,0c37.461,0,67.938-30.29,67.938-67.522S37.989,9.875.528,9.875L0,9.877V0H.526C43.468,0,78.4,34.721,78.4,77.4S43.468,154.8.526,154.8Z" transform="translate(-2165.203 -11605.607) rotate(90)"/>
    <path id="path-110-3" data-name="path-110" class="cls-1" d="M.384,113.019l-.384,0v-9.224l.385,0a47.288,47.288,0,1,0,0-94.575L0,9.222V0L.384,0c31.352,0,56.86,25.35,56.86,56.51S31.736,113.019.384,113.019Z" transform="translate(-2243.078 -11661.114)"/>
    <path id="path-122" class="cls-1" d="M34.927,35.381A35.076,35.076,0,0,1,0,.237L0,0h9.5A26.337,26.337,0,0,0,35.43,25.478v9.9Z" transform="translate(-2208.177 -11606.513) rotate(180)"/>
  </g>
</svg>
